<?xml version="1.0" standalone="no"?>
<!DOCTYPE svg PUBLIC "-//W3C//DTD SVG 20010904//EN"
 "http://www.w3.org/TR/2001/REC-SVG-20010904/DTD/svg10.dtd">
<svg version="1.0" xmlns="http://www.w3.org/2000/svg"
 width="1280.000000pt" height="1280.000000pt" viewBox="0 0 1280.000000 1280.000000"
 preserveAspectRatio="xMidYMid meet">
<metadata>
Created by potrace 1.14, written by Peter Selinger 2001-2017
</metadata>
<g transform="translate(0.000000,1280.000000) scale(0.100000,-0.100000)"
fill="#000000" stroke="none">
<path d="M6198 12795 c-1 -1 -46 -6 -98 -9 -112 -7 -178 -13 -240 -21 -72 -9
-182 -25 -215 -31 -16 -3 -43 -7 -60 -10 -71 -12 -277 -55 -331 -69 -33 -9
-99 -27 -149 -40 -155 -41 -408 -128 -550 -190 -16 -7 -59 -25 -95 -40 -158
-66 -428 -213 -610 -333 -350 -231 -669 -526 -910 -842 -36 -47 -68 -87 -71
-90 -8 -8 -122 -177 -139 -208 -9 -15 -31 -52 -51 -82 -19 -30 -38 -62 -42
-70 -4 -8 -17 -31 -28 -50 -124 -204 -316 -633 -437 -980 -63 -178 -189 -606
-207 -703 -5 -24 -30 -129 -46 -192 -5 -22 -11 -49 -13 -60 -2 -11 -14 -67
-25 -125 -12 -58 -24 -116 -26 -130 -3 -14 -7 -36 -10 -50 -7 -32 -12 -60 -26
-145 -6 -38 -13 -79 -15 -90 -3 -19 -6 -36 -20 -135 -3 -25 -8 -54 -9 -65 -2
-11 -6 -42 -9 -70 -4 -27 -8 -61 -11 -75 -2 -14 -6 -52 -9 -85 -4 -33 -8 -76
-11 -95 -6 -48 -16 -146 -20 -195 -33 -386 -38 -519 -39 -905 0 -184 3 -371 7
-415 13 -141 16 -169 23 -215 4 -25 8 -54 9 -65 19 -141 72 -384 126 -579 22
-77 41 -148 43 -156 2 -8 12 -35 21 -60 9 -25 17 -49 19 -55 9 -39 50 -152 57
-159 5 -6 9 -17 9 -26 0 -16 17 -59 41 -102 5 -10 9 -22 9 -28 0 -5 22 -60 49
-122 26 -62 57 -133 67 -158 41 -96 236 -483 321 -635 50 -88 102 -182 118
-210 15 -27 37 -66 50 -85 12 -19 69 -111 126 -205 57 -93 107 -171 111 -173
4 -2 8 -8 8 -14 0 -5 16 -33 35 -61 19 -29 132 -198 251 -377 177 -266 318
-472 366 -535 5 -5 75 -100 156 -210 124 -166 302 -392 399 -505 12 -14 31
-36 43 -50 187 -220 469 -502 694 -695 123 -105 348 -270 424 -312 13 -7 35
-21 49 -33 14 -11 31 -20 39 -20 7 0 14 -3 16 -8 6 -14 231 -129 338 -172 30
-12 66 -27 80 -32 121 -50 357 -108 505 -125 85 -9 351 -10 420 -1 347 44 750
220 1091 477 12 9 32 23 44 31 24 16 125 97 204 164 147 123 323 292 517 496
19 20 63 69 99 110 36 41 70 79 76 85 6 5 45 51 85 100 41 50 82 99 91 110
393 472 972 1343 1320 1985 94 173 318 620 318 634 0 3 14 36 31 73 44 96 51
112 109 263 29 74 58 149 65 165 7 17 23 62 35 100 13 39 25 75 29 80 3 6 6
15 7 20 1 6 18 64 39 130 59 193 63 209 69 235 3 14 14 59 25 100 22 83 76
332 85 395 4 22 11 65 16 95 5 30 12 75 15 100 3 25 7 56 10 70 4 26 11 85 20
177 3 28 8 82 12 120 9 86 8 1079 -1 1273 -14 315 -27 526 -41 660 -2 25 -7
72 -10 105 -3 33 -7 76 -10 95 -2 19 -7 60 -10 90 -3 30 -7 66 -9 80 -5 30
-15 101 -21 155 -3 22 -7 51 -10 65 -2 14 -7 41 -10 60 -3 19 -10 58 -15 85
-5 28 -12 61 -14 75 -6 36 -33 163 -51 245 -22 100 -82 315 -117 420 -16 50
-31 97 -33 105 -5 21 -73 198 -90 235 -7 17 -25 59 -40 95 -24 57 -120 257
-145 300 -68 120 -156 263 -205 335 -65 96 -166 237 -175 245 -3 3 -32 39 -64
80 -33 41 -73 91 -90 110 -17 20 -56 65 -86 100 -142 165 -425 433 -585 552
-5 4 -23 18 -40 31 -175 138 -489 321 -745 435 -124 55 -146 64 -160 67 -8 2
-49 17 -90 33 -77 30 -249 90 -278 98 -9 2 -48 13 -87 24 -86 26 -211 60 -245
66 -13 3 -61 14 -106 24 -92 22 -287 58 -349 66 -22 2 -46 7 -53 9 -7 3 -39 7
-70 10 -31 4 -64 8 -72 10 -8 2 -51 7 -95 11 -44 3 -93 8 -110 11 -36 5 -582
13 -587 8z m-3748 -6680 c10 -3 29 -8 42 -10 130 -26 142 -28 233 -48 197 -45
612 -175 770 -242 190 -80 245 -105 335 -150 241 -120 372 -198 568 -337 116
-81 123 -87 196 -148 23 -19 66 -55 96 -80 110 -91 321 -310 431 -445 86 -105
289 -394 289 -410 0 -2 21 -39 46 -82 47 -79 181 -350 199 -403 5 -16 19 -49
30 -75 37 -84 133 -389 180 -573 29 -114 56 -214 59 -223 6 -15 -3 -16 -81
-14 -162 5 -375 27 -493 50 -14 3 -45 8 -70 11 -25 3 -49 8 -53 11 -5 3 -23 7
-41 8 -45 5 -264 61 -381 98 -55 17 -102 32 -105 32 -3 0 -18 6 -35 12 -16 7
-84 33 -150 58 -150 59 -359 160 -490 238 -116 69 -341 222 -365 247 -3 3 -39
33 -80 67 -71 57 -260 239 -325 314 -25 28 -155 187 -183 224 -148 195 -341
545 -432 785 -17 47 -36 94 -41 105 -13 29 -88 264 -92 289 -2 12 -6 28 -10
36 -5 14 -16 60 -18 77 -1 5 -5 17 -9 29 -5 11 -11 36 -14 55 -3 19 -8 45 -12
59 -8 33 -33 157 -40 195 -2 17 -9 55 -14 85 -6 30 -12 81 -15 112 l-5 57 31
-4 c17 -3 39 -7 49 -10z m8036 -18 c-25 -123 -200 -614 -288 -807 -84 -183
-232 -468 -256 -492 -6 -6 -12 -15 -12 -19 0 -8 -101 -174 -118 -194 -4 -5
-23 -32 -42 -60 -40 -59 -176 -242 -202 -270 -10 -11 -27 -31 -39 -45 -193
-231 -432 -452 -669 -619 -63 -45 -119 -85 -125 -89 -66 -50 -360 -208 -505
-272 -165 -73 -483 -183 -590 -205 -8 -2 -53 -12 -100 -23 -120 -29 -228 -51
-276 -57 -23 -2 -83 -12 -135 -20 -52 -9 -113 -18 -136 -20 -23 -3 -54 -10
-68 -15 -25 -10 -26 -9 -20 23 3 17 8 52 10 77 3 41 27 181 40 240 3 14 8 36
11 50 17 84 65 264 105 388 127 397 331 795 573 1115 127 167 311 364 455 487
29 25 58 50 64 56 25 22 215 162 267 196 168 108 327 194 485 262 50 21 104
45 120 52 17 7 53 20 80 29 28 9 59 20 70 25 35 15 176 57 300 89 122 32 136
35 196 45 19 3 45 8 59 11 14 3 41 8 60 11 19 3 42 7 50 9 8 2 38 7 66 10 28
3 61 8 74 10 14 3 54 7 90 10 36 3 79 8 95 10 17 2 82 7 145 10 63 4 116 8
118 9 8 8 50 -8 48 -17z"/>
</g>
</svg>
